<?xml version="1.0" encoding="UTF-8"?>
<svg width="30px" height="30px" viewBox="0 0 30 30" version="1.1" xmlns="http://www.w3.org/2000/svg" xmlns:xlink="http://www.w3.org/1999/xlink">
    <!-- Generator: Sketch 40.1 (33804) - http://www.bohemiancoding.com/sketch -->
    <title>vk</title>
    <desc>Created with Sketch.</desc>
    <defs></defs>
    <g id="Symbols" stroke="none" stroke-width="1" fill="none" fill-rule="evenodd">
        <g id="header" transform="translate(-1684.000000, -25.000000)">
            <g id="vk" transform="translate(1684.000000, 25.000000)">
                <path d="M14.7935065,0 C6.62337662,0 0,6.62337662 0,14.7935065 C0,22.9597403 6.62337662,29.5831169 14.7935065,29.5831169 C22.9597403,29.5831169 29.5831169,22.9597403 29.5831169,14.7935065 C29.5831169,6.62337662 22.9597403,0 14.7935065,0 L14.7935065,0 Z" id="Fill-7" fill="#BC7E9D"></path>
                <path d="M15.4318062,19.7680223 C15.4318062,19.7680223 15.7747626,19.7302449 15.9501213,19.5420256 C16.111296,19.3690241 16.1061443,19.0443792 16.1061443,19.0443792 C16.1061443,19.0443792 16.0839318,17.5242748 16.7910535,17.3003473 C17.488407,17.0797569 18.3836662,18.7695924 19.3325166,19.4193494 C20.0500755,19.9109888 20.5953533,19.8033301 20.5953533,19.8033301 L23.1327352,19.7680223 C23.1327352,19.7680223 24.4600017,19.6862603 23.830624,18.6452475 C23.7791069,18.5601484 23.4639832,17.8751503 21.9439626,16.4676438 C20.3528218,14.9944608 20.5661157,15.2328051 22.4826168,12.6845696 C23.6497791,11.1326949 24.1163094,10.1853245 23.9705229,9.77951838 C23.8315607,9.39293465 22.9730993,9.49505362 22.9730993,9.49505362 L20.1162448,9.5127409 C20.1162448,9.5127409 19.9042889,9.4839073 19.7473292,9.57768323 C19.5937816,9.66925658 19.4952302,9.88337271 19.4952302,9.88337271 C19.4952302,9.88337271 19.0428837,11.0842385 18.4400673,12.1056284 C17.1679308,14.2604723 16.6591832,14.3745385 16.4512416,14.2405825 C15.9673828,13.9286857 16.0883475,12.9878563 16.0883475,12.3192106 C16.0883475,10.2307775 16.4058799,9.36009639 15.4700091,9.13470046 C15.1595018,9.05987995 14.9307528,9.01042233 14.1365204,9.002413 C13.117085,8.99200087 12.2544755,9.00554999 11.7659333,9.24422806 C11.4409076,9.4030798 11.1901467,9.75675853 11.3429583,9.77718232 C11.5318318,9.80227823 11.9593564,9.89231646 12.1860315,10.2000083 C12.4788758,10.5974713 12.4686393,11.4897109 12.4686393,11.4897109 C12.4686393,11.4897109 12.636906,13.9480416 12.0757047,14.2533974 C11.6907318,14.4628414 11.1624479,14.0352099 10.0282031,12.0801321 C9.44726472,11.0787654 9.00843313,9.97167558 9.00843313,9.97167558 C9.00843313,9.97167558 8.92393179,9.7648346 8.77299353,9.65403885 C8.58994074,9.51994929 8.33416194,9.47736635 8.33416194,9.47736635 L5.61928038,9.49505362 C5.61928038,9.49505362 5.21182736,9.50646692 5.06209339,9.68320617 C4.92888502,9.84058953 5.05145546,10.1657684 5.05145546,10.1657684 C5.05145546,10.1657684 7.17676788,15.1263478 9.58348382,17.6261268 C11.7904876,19.9184642 14.2961564,19.7680223 14.2961564,19.7680223 L15.4318062,19.7680223 Z" id="Fill-4" fill="#FFFFFF"></path>
            </g>
        </g>
    </g>
</svg>