<?xml version="1.0" encoding="UTF-8"?>
<svg width="17px" height="17px" viewBox="0 0 17 17" version="1.1" xmlns="http://www.w3.org/2000/svg" xmlns:xlink="http://www.w3.org/1999/xlink">
    <!-- Generator: Sketch 41.2 (35397) - http://www.bohemiancoding.com/sketch -->
    <title>favicon</title>
    <desc>Created with Sketch.</desc>
    <defs></defs>
    <g id="Page-1" stroke="none" stroke-width="1" fill="none" fill-rule="evenodd">
        <g id="fav" fill="#BD7E9D">
            <path d="M5.19126771,3 L2.46575259,3 C2.33925125,3 2.23000174,3.0459998 2.13800077,3.13800077 C2.0459998,3.23000174 2,3.33925125 2,3.46575259 L2,14.6093144 C2,14.7358158 2.0459998,14.8450653 2.13800077,14.9370663 C2.23000174,15.0290672 2.33925125,15.075067 2.46575259,15.075067 L5.58801992,15.075067 C5.71452125,15.075067 5.82377076,15.0290672 5.91577173,14.9370663 C6.00777271,14.8450653 6.0537725,14.7358158 6.0537725,14.6093144 L6.0537725,9.8827882 L7.19227882,11.7457985 C7.27277967,11.8722999 7.36190427,11.9757994 7.4596553,12.0563003 C7.55740634,12.1368011 7.68103079,12.1770509 7.83053236,12.1770509 L9.03803907,12.1770509 C9.18754064,12.1770509 9.31116509,12.1368011 9.40891612,12.0563003 C9.50666716,11.9757994 9.59579176,11.8722999 9.67629261,11.7457985 L10.8147989,9.8827882 L10.8147989,14.6093144 C10.8147989,14.7358158 10.8607987,14.8450653 10.9527997,14.9370663 C11.0448007,15.0290672 11.1540502,15.075067 11.2805515,15.075067 L14.4028188,15.075067 C14.5293202,15.075067 14.6385697,15.0290672 14.7305707,14.9370663 C14.8225716,14.8450653 14.8685714,14.7358158 14.8685714,14.6093144 L14.8685714,3.46575259 C14.8685714,3.33925125 14.8225716,3.23000174 14.7305707,3.13800077 C14.6385697,3.0459998 14.5293202,3 14.4028188,3 L11.6773037,3 C11.3553003,3 11.1080514,3.15524931 10.9355496,3.46575259 L8.43428571,7.60577556 L5.93302183,3.46575259 C5.76052001,3.15524931 5.51327111,3 5.19126771,3 Z" id="M"></path>
        </g>
    </g>
</svg>