<?xml version="1.0" encoding="UTF-8"?>
<svg width="30px" height="30px" viewBox="0 0 30 30" version="1.1" xmlns="http://www.w3.org/2000/svg" xmlns:xlink="http://www.w3.org/1999/xlink">
    <!-- Generator: Sketch 40.1 (33804) - http://www.bohemiancoding.com/sketch -->
    <title>fb</title>
    <desc>Created with Sketch.</desc>
    <defs></defs>
    <g id="Symbols" stroke="none" stroke-width="1" fill="none" fill-rule="evenodd">
        <g id="header" transform="translate(-1584.000000, -25.000000)" fill="#BC7E9D">
            <path d="M1606.29949,46.3433426 C1606.29949,46.7858554 1606.08218,47.1153694 1605.64362,47.1153694 L1601.95338,47.1153694 L1601.95338,41.5839589 L1603.83011,41.5839589 L1604.11458,39.2133544 L1601.95338,39.2133544 L1601.95338,37.9395496 C1601.95338,37.3073884 1602.12327,36.8427499 1603.032,36.8427499 L1604.32398,36.8427499 L1604.32398,34.9170288 C1603.92888,34.8893718 1603.31648,34.8301067 1602.51442,34.8301067 C1600.8471,34.8301067 1599.58277,35.8494666 1599.58277,37.7222442 L1599.58277,39.2133544 L1597.60727,39.2133544 L1597.60727,41.5839589 L1599.58277,41.5839589 L1599.58277,47.1153694 L1592.73963,47.1153694 C1592.29712,47.1153694 1592.07586,46.7858554 1592.07586,46.3433426 L1592.07586,33.439352 C1592.07586,32.9968392 1592.29712,32.4966416 1592.73963,32.4966416 L1605.64362,32.4966416 C1606.08218,32.4966416 1606.29949,32.9968392 1606.29949,33.439352 L1606.29949,46.3433426 Z M1599.00198,25 C1590.71671,25 1584,31.7167128 1584,40.0019755 C1584,48.2832872 1590.71671,55 1599.00198,55 C1607.28329,55 1614,48.2832872 1614,40.0019755 C1614,31.7167128 1607.28329,25 1599.00198,25 L1599.00198,25 Z" id="fb"></path>
        </g>
    </g>
</svg>