<?xml version="1.0" encoding="UTF-8"?>
<svg width="21px" height="21px" viewBox="0 0 21 21" version="1.1" xmlns="http://www.w3.org/2000/svg" xmlns:xlink="http://www.w3.org/1999/xlink">
    <!-- Generator: Sketch 40.1 (33804) - http://www.bohemiancoding.com/sketch -->
    <title>Fill 5</title>
    <desc>Created with Sketch.</desc>
    <defs></defs>
    <g id="Symbols" stroke="none" stroke-width="1" fill="none" fill-rule="evenodd">
        <g id="header" transform="translate(-1392.000000, -30.000000)" fill="#BC7E9D">
            <path d="M1405.06862,44.5569047 C1404.79321,44.5796534 1404.54055,44.4421928 1404.2879,44.304248 C1401.96946,42.9499699 1399.99516,41.0216481 1398.61813,38.7259578 C1398.36547,38.3358405 1398.13605,37.8765088 1398.22753,37.4176611 C1398.38822,36.5454634 1399.49033,36.2008436 1399.81171,35.3746275 C1400.11035,34.6626392 1399.71975,33.8591718 1399.2609,33.2396306 C1398.50342,32.2067394 1397.53926,31.3113089 1396.43715,30.6457861 C1395.90909,30.3243992 1395.33504,30.0485098 1394.7155,30.0030122 C1391.93773,29.8650675 1391.77704,34.5019457 1392.14441,36.3155555 C1392.53453,38.1978958 1393.47594,39.9427753 1394.57756,41.5264773 C1397.17189,45.2916417 1400.72989,48.4822786 1405.04587,49.9972502 C1406.56084,50.5253123 1408.19052,50.8466992 1409.75148,50.4793307 C1410.5322,50.2958884 1411.26693,49.9517527 1411.81774,49.3544763 C1412.36855,48.7809167 1412.66719,47.9542165 1412.52925,47.1739819 C1412.39179,46.3705145 1411.84049,45.7277406 1411.28968,45.153697 C1410.48621,44.3274808 1409.59078,43.5927438 1408.62662,42.9499699 C1408.44318,42.8352579 1408.25974,42.720546 1408.05306,42.6973132 C1407.82315,42.6745645 1407.61696,42.7892764 1407.41029,42.9039883 C1406.83624,43.2253752 1406.30818,43.6154926 1405.84934,44.0520754 C1405.64266,44.2582665 1405.41275,44.4649415 1405.13735,44.5109231 C1405.1146,44.5341559 1405.09137,44.5569047 1405.06862,44.5569047" id="Fill-5"></path>
        </g>
    </g>
</svg>