<?xml version="1.0" encoding="UTF-8"?>
<svg width="30px" height="30px" viewBox="0 0 30 30" version="1.1" xmlns="http://www.w3.org/2000/svg" xmlns:xlink="http://www.w3.org/1999/xlink">
    <!-- Generator: Sketch 40.1 (33804) - http://www.bohemiancoding.com/sketch -->
    <title>inst</title>
    <desc>Created with Sketch.</desc>
    <defs></defs>
    <g id="Symbols" stroke="none" stroke-width="1" fill="none" fill-rule="evenodd">
        <g id="header" transform="translate(-1634.000000, -25.000000)">
            <g id="inst" transform="translate(1634.000000, 25.000000)">
                <path d="M14.7935065,0 C6.62337662,0 0,6.62337662 0,14.7935065 C0,22.9597403 6.62337662,29.5831169 14.7935065,29.5831169 C22.9597403,29.5831169 29.5831169,22.9597403 29.5831169,14.7935065 C29.5831169,6.62337662 22.9597403,0 14.7935065,0 L14.7935065,0 Z" id="Fill-7" fill="#BC7E9D"></path>
                <g transform="translate(6.000000, 6.000000)" fill="#FFFFFF">
                    <path d="M8.99716071,0.0356435644 C6.55366071,0.0356435644 6.24726786,0.045980198 5.28766071,0.0896792079 C4.32998214,0.133271287 3.67598214,0.285077228 3.10366071,0.507029703 C2.51201786,0.73650297 2.01026786,1.04353663 1.51008929,1.54272475 C1.00991071,2.04194851 0.702267857,2.54270495 0.472339286,3.13317624 C0.249910714,3.70432871 0.0978392857,4.35706931 0.054125,5.31281584 C0.0103392857,6.27055842 -1.78571427e-05,6.57634455 -1.78571427e-05,9.01500594 C-1.78571427e-05,11.4536317 0.0103392857,11.7594178 0.054125,12.7171604 C0.0978392857,13.6729069 0.249910714,14.3256475 0.472339286,14.8968 C0.702267857,15.4872713 1.00991071,15.9880277 1.51008929,16.4872515 C2.01026786,16.9864396 2.51201786,17.2934733 3.10366071,17.5229465 C3.67598214,17.744899 4.32998214,17.896705 5.28766071,17.940297 C6.24726786,17.9840317 6.55366071,17.9943327 8.99716071,17.9943327 C11.4406607,17.9943327 11.7470179,17.9840317 12.7066607,17.940297 C13.6643393,17.896705 14.3183393,17.744899 14.8906607,17.5229465 C15.4823036,17.2934733 15.9840536,16.9864396 16.4842321,16.4872515 C16.9844107,15.9880277 17.2920536,15.4872713 17.5219821,14.8968 C17.7444107,14.3256475 17.8964821,13.6729069 17.9401964,12.7171604 C17.9839821,11.7594178 17.9943036,11.4536317 17.9943036,9.01500594 C17.9943036,6.57634455 17.9839821,6.27055842 17.9401964,5.31281584 C17.8964821,4.35706931 17.7444107,3.70432871 17.5219821,3.13317624 C17.2920536,2.54270495 16.9844107,2.04194851 16.4842321,1.54272475 C15.9840536,1.04353663 15.4823036,0.73650297 14.8906607,0.507029703 C14.3183393,0.285077228 13.6643393,0.133271287 12.7066607,0.0896792079 C11.7470179,0.045980198 11.4406607,0.0356435644 8.99716071,0.0356435644 M8.99716071,1.65354059 C11.3995179,1.65354059 11.6840536,1.66270099 12.6327679,1.70590099 C13.5099821,1.74582178 13.986375,1.89210297 14.3034464,2.01507327 C14.723375,2.17796436 15.023125,2.37254257 15.3379464,2.68677624 C15.6527679,3.00097426 15.8477679,3.30009505 16.0109464,3.71922772 C16.1341607,4.03563564 16.2807321,4.51108515 16.3207679,5.38656238 C16.3640536,6.33339802 16.3731964,6.61740594 16.3731964,9.01500594 C16.3731964,11.4125703 16.3640536,11.6965782 16.3207679,12.6434139 C16.2807321,13.5188911 16.1341607,13.9943406 16.0109464,14.3107485 C15.8477679,14.7298812 15.6527679,15.029002 15.3379464,15.3432 C15.023125,15.6574337 14.723375,15.8520119 14.3034464,16.014903 C13.986375,16.1378733 13.5099821,16.2841545 12.6327679,16.3240752 C11.6841964,16.3672752 11.3996607,16.3764356 8.99716071,16.3764356 C6.59466071,16.3764356 6.310125,16.3672752 5.36155357,16.3240752 C4.48433929,16.2841545 4.00791071,16.1378733 3.690875,16.014903 C3.27094643,15.8520119 2.97119643,15.6574337 2.656375,15.3432 C2.34155357,15.029002 2.14655357,14.7298812 1.98333929,14.3107485 C1.86016071,13.9943406 1.71358929,13.5188911 1.67355357,12.6434139 C1.63026786,11.6965782 1.621125,11.4125703 1.621125,9.01500594 C1.621125,6.61740594 1.63026786,6.33339802 1.67355357,5.38656238 C1.71358929,4.51108515 1.86016071,4.03563564 1.98333929,3.71922772 C2.14655357,3.30009505 2.34155357,3.00097426 2.656375,2.68677624 C2.97119643,2.37254257 3.27094643,2.17796436 3.690875,2.01507327 C4.00791071,1.89210297 4.48433929,1.74582178 5.36151786,1.70590099 C6.31026786,1.66270099 6.59480357,1.65354059 8.99716071,1.65354059" id="Fill-1"></path>
                    <path d="M8.99716071,12.008103 C7.34083929,12.008103 5.99808929,10.6680475 5.99808929,9.01500594 C5.99808929,7.36192871 7.34083929,6.02187327 8.99716071,6.02187327 C10.6534821,6.02187327 11.9961964,7.36192871 11.9961964,9.01500594 C11.9961964,10.6680475 10.6534821,12.008103 8.99716071,12.008103 L8.99716071,12.008103 L8.99716071,12.008103 Z M8.99716071,4.40397624 C6.44551786,4.40397624 4.37698214,6.4683802 4.37698214,9.01500594 C4.37698214,11.561596 6.44551786,13.626 8.99716071,13.626 C11.5488036,13.626 13.6173393,11.561596 13.6173393,9.01500594 C13.6173393,6.4683802 11.5488036,4.40397624 8.99716071,4.40397624 M14.8795286,4.22179129 C14.8795286,4.81689624 14.3961357,5.29929624 13.7998857,5.29929624 C13.2036,5.29929624 12.7202071,4.81689624 12.7202071,4.22179129 C12.7202071,3.62668634 13.2036,3.14428634 13.7998857,3.14428634 C14.3961357,3.14428634 14.8795286,3.62668634 14.8795286,4.22179129" id="Combined-Shape"></path>
                </g>
            </g>
        </g>
    </g>
</svg>